<?xml version='1.0' encoding='utf-8'?>
<svg xmlns="http://www.w3.org/2000/svg" width="8828" height="1548" viewBox="0 0 8828 1548" fill="none" data-lower-shift="643">
<path d="M598.124 6.80776H1008.85V548.394H848.494V135.397H758.482V548.394H598.124V6.80776ZM1284.97 555.958C1240.6 555.958 1201.01 545.872 1166.22 525.701C1131.93 505.531 1104.95 475.274 1085.28 434.933C1065.62 394.591 1055.78 344.164 1055.78 283.652C1055.78 224.148 1065.37 173.217 1084.53 130.858C1103.69 88.4995 1130.42 56.2262 1164.71 34.0383C1199.5 11.3462 1239.59 0.000111666 1284.97 0.000111666C1329.86 0.000111666 1369.69 10.5898 1404.49 31.7691C1439.79 52.4442 1467.52 83.2046 1487.69 124.05C1507.86 164.896 1517.95 215.071 1517.95 274.575C1517.95 335.087 1507.86 386.271 1487.69 428.125C1467.52 469.98 1439.79 501.749 1404.49 523.432C1369.69 545.116 1329.86 555.958 1284.97 555.958ZM1284.97 422.83C1307.16 422.83 1324.06 412.493 1335.65 391.818C1347.76 371.143 1353.81 333.322 1353.81 278.357C1353.81 222.887 1347.76 184.815 1335.65 164.14C1324.06 142.961 1307.16 132.371 1284.97 132.371C1271.86 132.371 1260.27 136.909 1250.18 145.986C1240.09 155.063 1232.28 170.191 1226.73 191.371C1221.18 212.55 1218.41 241.545 1218.41 278.357C1218.41 314.664 1221.18 343.408 1226.73 364.587C1232.28 385.767 1240.09 400.895 1250.18 409.971C1260.27 418.544 1271.86 422.83 1284.97 422.83ZM2014.95 548.394H1842.49L1752.48 347.19H1732.06V548.394H1571.7V6.80776H1732.06V218.601H1753.24L1845.52 6.80776H2001.34L1884.85 267.767L2014.95 548.394ZM2490.64 548.394H2331.04L2309.86 465.945H2176.73L2154.8 548.394H2023.18L2175.22 6.80776H2338.61L2490.64 548.394ZM2210.77 341.139H2278.09L2245.57 211.793L2210.77 341.139ZM2629.48 6.80776H2812.53C2852.37 6.80776 2886.66 11.3462 2915.41 20.423C2944.15 28.9956 2966.34 43.3673 2981.97 63.5381C2998.11 83.2046 3006.17 109.679 3006.17 142.961C3006.17 180.277 2997.1 208.768 2978.94 228.434C2961.29 247.597 2937.85 260.455 2908.6 267.011C2945.41 272.558 2973.4 285.417 2992.56 305.588C3012.23 325.758 3022.06 355.006 3022.06 393.331C3022.06 422.578 3016.26 447.287 3004.66 467.458C2993.57 487.125 2977.93 503.009 2957.76 515.112C2938.1 526.71 2915.66 535.283 2890.44 540.83C2865.23 545.872 2838.76 548.394 2811.02 548.394H2629.48V6.80776ZM2802.7 211.037C2817.83 211.037 2829.93 208.264 2839.01 202.717C2848.09 197.17 2852.62 185.824 2852.62 168.678C2852.62 154.055 2849.35 143.969 2842.79 138.422C2836.23 132.371 2826.91 129.345 2814.8 129.345H2789.84V211.037H2802.7ZM2809.51 425.856C2825.65 425.856 2838.0 422.074 2846.57 414.51C2855.65 406.946 2860.19 394.087 2860.19 375.933C2860.19 358.284 2855.65 345.929 2846.57 338.869C2838.0 331.305 2824.64 327.523 2806.48 327.523H2789.84V425.856H2809.51ZM3060.87 548.394V6.80776H3221.23V170.191H3248.46C3317.54 170.191 3369.74 184.815 3405.04 214.063C3440.33 242.806 3457.98 289.451 3457.98 353.998C3457.98 419.553 3440.59 468.467 3405.79 500.74C3371.0 532.509 3320.57 548.394 3254.51 548.394H3060.87ZM3485.21 6.80776H3645.57V548.394H3485.21V6.80776ZM3237.87 422.83C3262.07 422.83 3278.21 417.536 3286.28 406.946C3294.35 395.852 3298.38 379.967 3298.38 359.292C3298.38 335.087 3293.34 318.447 3283.25 309.37C3273.17 300.293 3256.02 295.754 3231.82 295.754H3221.23V422.83H3237.87ZM4630.82 883.808H5029.44L4915.98 1425.39H4760.16L4846.39 1012.4H4759.41L4673.18 1425.39H4517.360000000001L4630.82 883.808ZM5091.75 883.808H5253.62C5308.08 883.808 5350.7 897.423 5381.46 924.654C5412.22 951.884 5427.6 991.721 5427.6 1044.17C5427.6 1093.08 5417.51 1134.43 5397.34 1168.22C5377.67 1201.5 5350.19 1226.71 5314.89 1243.86C5280.1 1260.5 5239.5 1268.82 5193.11 1268.82H5165.88L5132.6 1425.39H4976.78L5091.75 883.808ZM5221.85 1012.4H5220.34L5193.11 1140.23H5208.24C5223.87 1140.23 5236.23 1136.45 5245.3 1128.88C5254.38 1120.81 5260.94 1110.48 5264.97 1097.87C5269.51 1085.26 5271.78 1072.4 5271.78 1059.29C5271.78 1043.16 5268.0 1031.31 5260.43 1023.74C5253.37 1016.18 5240.51 1012.4 5221.85 1012.4ZM5516.49 883.808H5664.75L5607.26 1156.87L5787.29 883.808H5935.54L5820.57 1425.39H5672.31L5729.8 1153.84L5551.29 1425.39H5403.03L5516.49 883.808ZM5965.64 883.808H6121.46L6151.71 1019.96L6222.81 883.808H6371.83L6215.25 1157.63L6287.86 1425.39H6130.53L6091.2 1279.41L6007.24 1425.39H5856.71L6028.42 1147.04L5965.64 883.808ZM6510.7 1435.98C6472.38 1435.98 6438.09 1428.67 6407.83 1414.05C6378.08 1399.42 6354.63 1376.73 6337.49 1345.97C6320.34 1315.21 6311.77 1275.63 6311.77 1227.22C6311.77 1176.28 6318.07 1129.89 6330.68 1088.04C6343.29 1045.68 6360.94 1009.12 6383.63 978.358C6406.82 947.094 6434.05 923.141 6465.32 906.5C6496.58 889.355 6530.87 880.782 6568.19 880.782C6606.01 880.782 6639.8 888.094 6669.55 902.718C6699.3 916.837 6722.75 939.277 6739.89 970.038C6757.04 1000.29 6765.61 1040.13 6765.61 1089.55C6765.61 1139.98 6759.06 1186.37 6745.95 1228.73C6733.34 1271.09 6715.44 1307.9 6692.24 1339.16C6669.55 1369.92 6642.57 1393.88 6611.31 1411.02C6580.55 1427.66 6547.01 1435.98 6510.7 1435.98ZM6470.61 1233.27C6470.61 1257.47 6474.14 1275.12 6481.2 1286.22C6488.26 1297.31 6500.37 1302.86 6517.51 1302.86C6535.16 1302.86 6550.54 1292.52 6563.65 1271.84C6577.27 1251.17 6587.86 1224.19 6595.42 1190.91C6602.99 1157.63 6606.77 1121.82 6606.77 1083.5C6606.77 1059.29 6602.99 1041.64 6595.42 1030.55C6588.36 1019.46 6576.51 1013.91 6559.87 1013.91C6542.22 1013.91 6526.59 1024.25 6512.97 1044.92C6499.86 1065.6 6489.52 1092.58 6481.96 1125.86C6474.4 1159.14 6470.61 1194.94 6470.61 1233.27ZM6832.83 1547.93H6695.92L6750.38 1296.8H6782.15C6791.73 1289.74 6801.31 1278.65 6810.89 1263.52C6820.47 1248.39 6830.56 1225.7 6841.15 1195.45C6852.24 1165.19 6864.59 1125.1 6878.21 1075.18C6892.33 1024.75 6908.72 960.961 6927.38 883.808H7282.89L7195.14 1296.8H7265.49L7211.03 1547.93H7074.12L7095.3 1425.39H6864.59L6832.83 1547.93ZM6940.23 1296.8H7039.32L7099.84 1012.4H7032.52C7015.88 1083.5 7000.5 1141.74 6986.38 1187.13C6972.26 1232.51 6956.88 1269.07 6940.23 1296.8ZM7758.2 883.808 7643.22 1425.39H7487.41L7524.47 1250.66H7506.32L7401.17 1425.39H7237.04L7381.51 1193.18C7352.26 1165.44 7337.64 1129.64 7337.64 1085.77C7337.64 1040.89 7347.47 1003.57 7367.14 973.82C7386.8 943.564 7414.03 921.124 7448.83 906.5C7483.62 891.372 7523.21 883.808 7567.58 883.808H7758.2ZM7537.33 1129.64H7550.19L7575.9 1009.37H7552.46C7531.28 1009.37 7515.39 1015.93 7504.8 1029.04C7494.21 1042.15 7488.92 1059.04 7488.92 1079.72C7488.92 1097.37 7493.2 1110.22 7501.78 1118.29C7510.85 1125.86 7522.7 1129.64 7537.33 1129.64ZM7778.86 1012.4 7806.09 883.808H8184.29L8158.57 1012.4H8047.38L7959.64 1425.39H7803.82L7891.56 1012.4H7778.86Z" fill="#080245" />
<path d="M756.461 883.808H1155.086L1041.625 1425.39H885.806L972.0360000000001 1012.4H885.05L798.819 1425.39H642.9999819456L756.461 883.808ZM1217.395 883.808H1379.2649999999999C1433.7269999999999 883.808 1476.337 897.423 1507.098 924.654C1537.858 951.884 1553.239 991.721 1553.239 1044.17C1553.239 1093.08 1543.153 1134.43 1522.982 1168.22C1503.316 1201.5 1475.833 1226.71 1440.534 1243.86C1405.74 1260.5 1365.146 1268.82 1318.7530000000002 1268.82H1291.5230000000001L1258.241 1425.39H1102.421L1217.395 883.808ZM1347.496 1012.4H1345.984L1318.7530000000002 1140.23H1333.8809999999999C1349.5140000000001 1140.23 1361.868 1136.45 1370.9450000000002 1128.88C1380.022 1120.81 1386.577 1110.48 1390.612 1097.87C1395.15 1085.26 1397.4189999999999 1072.4 1397.4189999999999 1059.29C1397.4189999999999 1043.16 1393.637 1031.31 1386.0729999999999 1023.74C1379.013 1016.18 1366.154 1012.4 1347.496 1012.4ZM1766.18 1435.98C1727.86 1435.98 1693.57 1428.67 1663.31 1414.05C1633.5610000000001 1399.42 1610.113 1376.73 1592.967 1345.97C1575.8220000000001 1315.21 1567.25 1275.63 1567.25 1227.22C1567.25 1176.28 1573.5529999999999 1129.89 1586.1599999999999 1088.04C1598.767 1045.68 1616.4160000000002 1009.12 1639.108 978.358C1662.3 947.094 1689.54 923.141 1720.8 906.5C1752.06 889.355 1786.35 880.782 1823.67 880.782C1861.49 880.782 1895.28 888.094 1925.03 902.718C1954.78 916.837 1978.23 939.277 1995.37 970.038C2012.52 1000.29 2021.09 1040.13 2021.09 1089.55C2021.09 1139.98 2014.54 1186.37 2001.43 1228.73C1988.82 1271.09 1970.92 1307.9 1947.72 1339.16C1925.03 1369.92 1898.05 1393.88 1866.79 1411.02C1836.03 1427.66 1802.49 1435.98 1766.18 1435.98ZM1726.09 1233.27C1726.09 1257.47 1729.62 1275.12 1736.68 1286.22C1743.74 1297.31 1755.85 1302.86 1772.99 1302.86C1790.64 1302.86 1806.02 1292.52 1819.13 1271.84C1832.75 1251.17 1843.34 1224.19 1850.9 1190.91C1858.47 1157.63 1862.25 1121.82 1862.25 1083.5C1862.25 1059.29 1858.47 1041.64 1850.9 1030.55C1843.84 1019.46 1831.99 1013.91 1815.35 1013.91C1797.7 1013.91 1782.07 1024.25 1768.45 1044.92C1755.34 1065.6 1745.0 1092.58 1737.44 1125.86C1729.88 1159.14 1726.09 1194.94 1726.09 1233.27ZM2009.55 1425.39 2123.01 883.808H2278.83L2192.6 1296.8H2279.59L2365.8199999999997 883.808H2521.6400000000003L2435.41 1296.8H2505.75L2451.29 1547.93H2314.38L2335.56 1425.39H2009.55ZM2627.5299999999997 883.808H2956.56L2929.33 1012.4H2756.12L2741.75 1082.74H2886.22L2858.99 1210.57H2714.51L2697.12 1296.8H2877.14L2849.91 1425.39H2514.0699999999997L2627.5299999999997 883.808ZM3013.12 883.808H3168.94L3125.07 1089.55H3215.08L3258.19 883.808H3414.01L3300.55 1425.39H3144.73L3187.85 1218.9H3097.83L3053.96 1425.39H2898.14L3013.12 883.808ZM3436.18 1012.4 3463.41 883.808H3841.61L3815.89 1012.4H3704.7L3616.96 1425.39H3461.14L3548.88 1012.4H3436.18ZM3775.69 1425.39 3890.67 883.808H4046.48L4011.69 1047.19H4025.31C4077.75 1047.19 4119.860000000001 1060.3 4151.62 1086.52C4183.389999999999 1112.24 4199.280000000001 1150.57 4199.280000000001 1201.5C4199.280000000001 1250.41 4189.7 1291.51 4170.530000000001 1324.79C4151.37 1358.07 4124.65 1383.29 4090.36 1400.43C4056.57 1417.07 4017.24 1425.39 3972.36 1425.39H3775.69ZM4299.12 883.808H4454.9400000000005L4339.969999999999 1425.39H4184.15L4299.12 883.808ZM3994.29 1172.75H3985.22L3957.99 1299.83H3979.92C4003.62 1299.83 4020.26 1291.76 4029.84 1275.63C4039.93 1258.98 4044.97 1240.58 4044.97 1220.41C4044.97 1203.26 4040.94 1191.16 4032.87 1184.1C4024.8 1176.54 4011.94 1172.75 3994.29 1172.75Z" fill="#080245" />
<path d="M4062.028881450488 555.9475040446304Q3995.5580458577406 555.9475040446304 3943.8165431520224 525.7334878661088Q3892.0750404463042 495.51947168758716 3862.6163746722455 435.09143933054395Q3833.1577088981867 374.66340697350074 3833.1577088981867 284.0213584379359Q3833.1577088981867 194.89001071129712 3861.8610242677823 131.44057673640174Q3890.564339637378 67.99114276150635 3942.305842343096 34.37804976290107Q3994.0473450488143 0.7649567642957891 4062.028881450488 0.7649567642957891Q4129.255067447699 0.7649567642957891 4181.75192055788 32.11199854951195Q4234.248773668061 63.459040334728115 4264.462789846582 124.64242309623438Q4294.676806025104 185.82580585774065 4294.676806025104 274.9571535843794Q4294.676806025104 365.59920211994427 4264.462789846582 428.2932856903766Q4234.248773668061 490.9873692608089 4181.75192055788 523.4674366527197Q4129.255067447699 555.9475040446304 4062.028881450488 555.9475040446304ZM4062.028881450488 423.0058328591353Q4095.264299246862 423.0058328591353 4113.015033751743 392.0364662761507Q4130.765768256625 361.067099693166 4130.765768256625 278.7339056066946Q4130.765768256625 195.64536111576018 4113.015033751743 164.298319330544Q4095.264299246862 132.9512775453278 4062.028881450488 132.9512775453278Q4042.389770934449 132.9512775453278 4027.2827628451882 146.54758482566254Q4012.1757547559273 160.14389210599728 4003.866900306834 191.86860909344497Q3995.5580458577406 223.59332608089267 3995.5580458577406 278.7339056066946Q3995.5580458577406 333.1191347280335 4003.866900306834 364.8438517154812Q4012.1757547559273 396.5685687029289 4027.2827628451882 409.7872007810321Q4042.389770934449 423.0058328591353 4062.028881450488 423.0058328591353ZM4333.955027057183 135.97267916317998V7.563110404463146H4726.7372373779635V135.97267916317998H4610.413275090656V548.394H4450.278989344491V135.97267916317998ZM4745.62099748954 419.9844312412831H4784.143868117155Q4791.697372161785 404.87742315202235 4797.362500195258 386.3713382426779Q4803.0276282287305 367.8652533333334 4807.182055453277 339.16193796373784Q4811.336482677824 310.4586225941423 4813.9802090934445 267.0259743375175Q4816.623935509066 223.59332608089267 4818.512311520223 160.14389210599728Q4820.400687531381 96.6944581311019 4821.911388340307 7.563110404463146H5193.5437873361225V419.9844312412831H5255.482520502092V670.7607655230125H5118.764097294282L5113.47664446304 548.394H4887.626873528591L4882.33942069735 670.7607655230125H4745.62099748954ZM4927.660444965132 419.9844312412831H5033.409501589958V135.97267916317998H4953.342358716875Q4951.0763075034865 231.90218052998608 4946.544205076709 303.2827937517434Q4942.01210264993 374.66340697350074 4927.660444965132 419.9844312412831ZM5293.250040725244 548.394V7.563110404463146H5453.384326471408V170.71879776847982H5480.576941032077Q5584.059946443514 170.71879776847982 5636.934474755926 214.15144602510463Q5689.80900306834 257.58409428172945 5689.80900306834 354.2689460529987Q5689.80900306834 452.4644986331939 5637.68982516039 500.42924931659695Q5585.57064725244 548.394 5486.619744267782 548.394ZM5717.001617629009 7.563110404463146H5877.135903375173V548.394H5717.001617629009ZM5470.0020353695945 423.0058328591353Q5506.25885478382 423.0058328591353 5518.344461255229 406.76579916317996Q5530.430067726638 390.5257654672246 5530.430067726638 359.5563988842399Q5530.430067726638 323.299579470014 5515.323059637378 309.7032721896793Q5500.216051548116 296.1069649093445 5463.9592321338905 296.1069649093445H5453.384326471408V423.0058328591353ZM5913.392722789399 7.563110404463146H6082.591213389121L6145.285296959553 159.38854170153422L6201.1812268898175 7.563110404463146H6349.229906164574L6232.905943877266 288.5534608647141L6349.985256569037 548.394H6179.276065160389L6119.603383207809 396.5685687029289L6064.462803682008 548.394H5916.414124407252L6030.472035481171 268.9143503486751ZM6828.122062594141 548.394H6668.74312725244L6647.593315927475 466.0608059135286H6514.65164474198L6492.746483012552 548.394H6361.3155126359825L6513.140943933054 7.563110404463146H6676.29663129707ZM6548.642412942816 341.42798917712696H6615.868598940027L6583.388531548117 212.26307001394707ZM6856.070027559274 7.563110404463146H7194.4670087587165V135.97267916317998H7016.2043133054385V206.22026677824272H7161.986941366806V333.87448513249655H7016.2043133054385V419.9844312412831H7195.977709567643V548.394H6856.070027559274ZM7240.5433834309615 135.97267916317998V7.563110404463146H7633.325593751742V135.97267916317998H7517.0016314644345V548.394H7356.8673457182695V135.97267916317998ZM7677.891267615062 7.563110404463146H8016.288248814504V135.97267916317998H7838.025553361226V206.22026677824272H7983.808181422593V333.87448513249655H7838.025553361226V419.9844312412831H8017.79894962343V548.394H7677.891267615062ZM8155.272723235703 649.6109541980475H8061.609273082286Q8081.248383598325 625.4397412552302 8096.733066889818 598.6248018967922Q8112.217750181309 571.8098625383543 8117.505203012551 541.5958463598326Q8093.333990069734 534.7976927196653 8081.626058800557 516.2916078103208Q8069.9181275313795 497.7855229009763 8069.9181275313795 472.85895955369597Q8069.9181275313795 438.8681913528592 8092.956314867502 417.3407048256625Q8115.9945022036245 395.8132182984658 8148.474569595535 395.8132182984658Q8183.9760386052985 395.8132182984658 8206.63655073919 418.85140563458856Q8229.297062873082 441.8895929707113 8229.297062873082 482.6785148117155Q8229.297062873082 518.9353342259415 8217.589131603905 551.4154016178522Q8205.881200334727 583.8954690097629 8188.885816234308 609.1997075592748Q8171.89043213389 634.5039461087866 8155.272723235703 649.6109541980475Z" fill="#080245" /></svg>