<?xml version="1.0" encoding="UTF-8"?>
<svg xmlns="http://www.w3.org/2000/svg" width="2400" height="508" viewBox="0 0 9186.000 1944.000" role="img" aria-labelledby="title">
  <title id="title">ЗА КОГО ТЫ — СЕГОДНЯ БОЛЕЕШЬ?</title>
  <path id="text" d="M247.0 817.0Q151.0 817.0 80.0 793.0V627.0Q109.0 636.0 144.5 641.5Q180.0 647.0 208.0 647.0Q322.0 647.0 322.0 578.0Q322.0 547.0 301.0 534.0Q280.0 521.0 230.0 521.0H164.0V354.0H241.0Q304.0 354.0 304.0 303.0Q304.0 274.0 286.5 261.5Q269.0 249.0 230.0 249.0Q199.0 249.0 163.0 256.0Q127.0 263.0 85.0 278.0V112.0Q122.0 98.0 175.5 89.0Q229.0 80.0 275.0 80.0Q392.0 80.0 453.0 127.5Q514.0 175.0 514.0 266.0Q514.0 328.0 479.5 370.5Q445.0 413.0 381.0 432.0Q456.0 448.0 496.0 492.5Q536.0 537.0 536.0 607.0Q536.0 704.0 459.0 760.5Q382.0 817.0 247.0 817.0Z M1173.0 805.0H962.0L934.0 696.0H758.0L729.0 805.0H555.0L756.0 89.0H972.0ZM803.0 531.0H892.0L849.0 360.0Z M1942.0 805.0H1714.0L1595.0 539.0H1568.0V805.0H1356.0V89.0H1568.0V369.0H1596.0L1718.0 89.0H1924.0L1770.0 434.0Z M2271.0 815.0Q2183.0 815.0 2114.5 775.0Q2046.0 735.0 2007.0 655.0Q1968.0 575.0 1968.0 455.0Q1968.0 337.0 2006.0 253.0Q2044.0 169.0 2112.5 124.5Q2181.0 80.0 2271.0 80.0Q2360.0 80.0 2429.5 121.5Q2499.0 163.0 2539.0 244.0Q2579.0 325.0 2579.0 443.0Q2579.0 563.0 2539.0 646.0Q2499.0 729.0 2429.5 772.0Q2360.0 815.0 2271.0 815.0ZM2271.0 639.0Q2315.0 639.0 2338.5 598.0Q2362.0 557.0 2362.0 448.0Q2362.0 338.0 2338.5 296.5Q2315.0 255.0 2271.0 255.0Q2245.0 255.0 2225.0 273.0Q2205.0 291.0 2194.0 333.0Q2183.0 375.0 2183.0 448.0Q2183.0 520.0 2194.0 562.0Q2205.0 604.0 2225.0 621.5Q2245.0 639.0 2271.0 639.0Z M2650.0 89.0H3066.0V259.0H2862.0V805.0H2650.0Z M3408.0 815.0Q3320.0 815.0 3251.5 775.0Q3183.0 735.0 3144.0 655.0Q3105.0 575.0 3105.0 455.0Q3105.0 337.0 3143.0 253.0Q3181.0 169.0 3249.5 124.5Q3318.0 80.0 3408.0 80.0Q3497.0 80.0 3566.5 121.5Q3636.0 163.0 3676.0 244.0Q3716.0 325.0 3716.0 443.0Q3716.0 563.0 3676.0 646.0Q3636.0 729.0 3566.5 772.0Q3497.0 815.0 3408.0 815.0ZM3408.0 639.0Q3452.0 639.0 3475.5 598.0Q3499.0 557.0 3499.0 448.0Q3499.0 338.0 3475.5 296.5Q3452.0 255.0 3408.0 255.0Q3382.0 255.0 3362.0 273.0Q3342.0 291.0 3331.0 333.0Q3320.0 375.0 3320.0 448.0Q3320.0 520.0 3331.0 562.0Q3342.0 604.0 3362.0 621.5Q3382.0 639.0 3408.0 639.0Z M3914.0 259.0V89.0H4434.0V259.0H4280.0V805.0H4068.0V259.0Z M4493.0 805.0V89.0H4705.0V305.0H4741.0Q4878.0 305.0 4948.0 362.5Q5018.0 420.0 5018.0 548.0Q5018.0 678.0 4949.0 741.5Q4880.0 805.0 4749.0 805.0ZM5054.0 89.0H5266.0V805.0H5054.0ZM4727.0 639.0Q4775.0 639.0 4791.0 617.5Q4807.0 596.0 4807.0 555.0Q4807.0 507.0 4787.0 489.0Q4767.0 471.0 4719.0 471.0H4705.0V639.0Z M410.0 1712.0Q308.0 1712.0 234.0 1667.5Q160.0 1623.0 120.0 1541.0Q80.0 1459.0 80.0 1345.0Q80.0 1230.0 121.0 1148.0Q162.0 1066.0 238.0 1021.5Q314.0 977.0 420.0 977.0Q497.0 977.0 552.0 1005.0V1175.0Q499.0 1152.0 448.0 1152.0Q295.0 1152.0 295.0 1345.0Q295.0 1442.0 332.5 1489.0Q370.0 1536.0 448.0 1536.0Q501.0 1536.0 552.0 1513.0V1683.0Q500.0 1712.0 410.0 1712.0Z M637.0 986.0H1085.0V1156.0H849.0V1249.0H1042.0V1418.0H849.0V1532.0H1087.0V1702.0H637.0Z M1165.0 986.0H1581.0V1156.0H1377.0V1702.0H1165.0Z M1923.0 1712.0Q1835.0 1712.0 1766.5 1672.0Q1698.0 1632.0 1659.0 1552.0Q1620.0 1472.0 1620.0 1352.0Q1620.0 1234.0 1658.0 1150.0Q1696.0 1066.0 1764.5 1021.5Q1833.0 977.0 1923.0 977.0Q2012.0 977.0 2081.5 1018.5Q2151.0 1060.0 2191.0 1141.0Q2231.0 1222.0 2231.0 1340.0Q2231.0 1460.0 2191.0 1543.0Q2151.0 1626.0 2081.5 1669.0Q2012.0 1712.0 1923.0 1712.0ZM1923.0 1536.0Q1967.0 1536.0 1990.5 1495.0Q2014.0 1454.0 2014.0 1345.0Q2014.0 1235.0 1990.5 1193.5Q1967.0 1152.0 1923.0 1152.0Q1897.0 1152.0 1877.0 1170.0Q1857.0 1188.0 1846.0 1230.0Q1835.0 1272.0 1835.0 1345.0Q1835.0 1417.0 1846.0 1459.0Q1857.0 1501.0 1877.0 1518.5Q1897.0 1536.0 1923.0 1536.0Z M2268.0 1532.0H2319.0Q2329.0 1512.0 2336.5 1487.5Q2344.0 1463.0 2349.5 1425.0Q2355.0 1387.0 2358.5 1329.5Q2362.0 1272.0 2364.5 1188.0Q2367.0 1104.0 2369.0 986.0H2861.0V1532.0H2943.0V1864.0H2762.0L2755.0 1702.0H2456.0L2449.0 1864.0H2268.0ZM2509.0 1532.0H2649.0V1156.0H2543.0Q2540.0 1283.0 2534.0 1377.5Q2528.0 1472.0 2509.0 1532.0Z M2993.0 986.0H3205.0V1258.0H3329.0V986.0H3541.0V1702.0H3329.0V1429.0H3205.0V1702.0H2993.0Z M3601.0 1234.0Q3601.0 1112.0 3676.0 1049.0Q3751.0 986.0 3897.0 986.0H4131.0V1702.0H3919.0V1472.0H3891.0L3795.0 1702.0H3574.0L3697.0 1422.0Q3651.0 1396.0 3626.0 1349.0Q3601.0 1302.0 3601.0 1234.0ZM3892.0 1316.0H3919.0V1156.0H3892.0Q3816.0 1156.0 3816.0 1236.0Q3816.0 1273.0 3836.0 1294.5Q3856.0 1316.0 3892.0 1316.0Z M4356.0 1702.0V986.0H4830.0V1156.0H4568.0V1242.0H4615.0Q4740.0 1242.0 4808.0 1294.0Q4876.0 1346.0 4876.0 1461.0Q4876.0 1584.0 4809.5 1643.0Q4743.0 1702.0 4624.0 1702.0ZM4603.0 1542.0Q4638.0 1542.0 4650.5 1523.0Q4663.0 1504.0 4663.0 1470.0Q4663.0 1434.0 4647.0 1418.0Q4631.0 1402.0 4594.0 1402.0H4568.0V1542.0Z M5214.0 1712.0Q5126.0 1712.0 5057.5 1672.0Q4989.0 1632.0 4950.0 1552.0Q4911.0 1472.0 4911.0 1352.0Q4911.0 1234.0 4949.0 1150.0Q4987.0 1066.0 5055.5 1021.5Q5124.0 977.0 5214.0 977.0Q5303.0 977.0 5372.5 1018.5Q5442.0 1060.0 5482.0 1141.0Q5522.0 1222.0 5522.0 1340.0Q5522.0 1460.0 5482.0 1543.0Q5442.0 1626.0 5372.5 1669.0Q5303.0 1712.0 5214.0 1712.0ZM5214.0 1536.0Q5258.0 1536.0 5281.5 1495.0Q5305.0 1454.0 5305.0 1345.0Q5305.0 1235.0 5281.5 1193.5Q5258.0 1152.0 5214.0 1152.0Q5188.0 1152.0 5168.0 1170.0Q5148.0 1188.0 5137.0 1230.0Q5126.0 1272.0 5126.0 1345.0Q5126.0 1417.0 5137.0 1459.0Q5148.0 1501.0 5168.0 1518.5Q5188.0 1536.0 5214.0 1536.0Z M5563.0 1513.0Q5600.0 1518.0 5618.5 1503.0Q5637.0 1488.0 5642.0 1450.0Q5645.0 1427.0 5648.0 1392.5Q5651.0 1358.0 5653.0 1304.5Q5655.0 1251.0 5657.0 1173.0Q5659.0 1095.0 5660.0 986.0H6144.0V1702.0H5932.0V1156.0H5834.0Q5828.0 1416.0 5811.0 1525.0Q5795.0 1631.0 5726.5 1678.0Q5658.0 1725.0 5563.0 1701.0Z M6224.0 986.0H6672.0V1156.0H6436.0V1249.0H6629.0V1418.0H6436.0V1532.0H6674.0V1702.0H6224.0Z M6752.0 986.0H7200.0V1156.0H6964.0V1249.0H7157.0V1418.0H6964.0V1532.0H7202.0V1702.0H6752.0Z M7280.0 1702.0V986.0H7492.0V1532.0H7584.0V986.0H7796.0V1532.0H7888.0V986.0H8100.0V1702.0Z M8180.0 1702.0V986.0H8392.0V1202.0H8428.0Q8565.0 1202.0 8635.0 1259.5Q8705.0 1317.0 8705.0 1445.0Q8705.0 1575.0 8636.0 1638.5Q8567.0 1702.0 8436.0 1702.0ZM8414.0 1536.0Q8462.0 1536.0 8478.0 1514.5Q8494.0 1493.0 8494.0 1452.0Q8494.0 1404.0 8474.0 1386.0Q8454.0 1368.0 8406.0 1368.0H8392.0V1536.0Z M9106.0 1160.0Q9106.0 1209.0 9090.0 1245.5Q9074.0 1282.0 9033.0 1325.0Q9001.0 1359.0 8986.5 1377.5Q8972.0 1396.0 8968.0 1409.0Q8964.0 1422.0 8964.0 1442.0V1454.0H8789.0V1424.0Q8789.0 1395.0 8794.0 1374.5Q8799.0 1354.0 8813.5 1333.0Q8828.0 1312.0 8854.0 1283.0Q8874.0 1261.0 8882.0 1242.5Q8890.0 1224.0 8890.0 1201.0Q8890.0 1136.0 8822.0 1136.0Q8800.0 1136.0 8780.0 1141.0Q8760.0 1146.0 8732.0 1159.0V1005.0Q8762.0 992.0 8804.0 984.5Q8846.0 977.0 8887.0 977.0Q8989.0 977.0 9047.5 1026.0Q9106.0 1075.0 9106.0 1160.0ZM8877.0 1712.0Q8831.0 1712.0 8802.0 1682.0Q8773.0 1652.0 8773.0 1605.0Q8773.0 1559.0 8802.0 1529.5Q8831.0 1500.0 8877.0 1500.0Q8924.0 1500.0 8953.0 1529.0Q8982.0 1558.0 8982.0 1605.0Q8982.0 1652.0 8953.0 1682.0Q8924.0 1712.0 8877.0 1712.0Z" fill="#080245" fill-rule="nonzero" shape-rendering="geometricPrecision" data-font="YSTextCond-Black"/>
</svg>
