<?xml version='1.0' encoding='UTF-8'?>
<svg xmlns="http://www.w3.org/2000/svg" xmlns:inkscape="http://www.inkscape.org/namespaces/inkscape" width="1731" height="346" viewBox="421.654 756.429 1730.824 345.003">
  <g inkscape:groupmode="layer" inkscape:label="Layer 1" id="layer1">
    <path d="M 2094.838 812 C 2103.904 789.333 2108.532 777.667 2108.721 777 C 2108.24 776.654 2076.333 776.464 2013 776.429 L 1998.543 812 C 1998.848 812.401 1999.333 812.605 2000 812.613 C 2000.667 812.622 2016.167 812.619 2046.5 812.605 C 2076.833 812.592 2092.946 812.39 2094.838 812 Z M 1729.858 901 C 1730.619 901.297 1752.333 901.447 1795 901.45 C 1802.137 889.15 1806.588 881.926 1808.353 879.778 C 1810.118 877.631 1812 875.764 1814 874.18 C 1816 872.595 1817.833 871.447 1819.5 870.734 C 1821.167 870.021 1823.333 869.643 1826 869.601 C 1828.667 869.558 1830.667 869.907 1832 870.647 C 1833.333 871.387 1834.333 872.145 1835 872.922 C 1835.667 873.698 1836.227 874.405 1836.681 875.043 C 1837.135 875.681 1837.696 877 1838.364 879 C 1839.033 881 1839.503 883.333 1839.776 886 C 1840.048 888.667 1839.577 895.667 1838.363 907 C 1837.454 907.339 1830.667 907.512 1818 907.519 C 1805.333 907.525 1798.695 907.685 1798.084 908 L 1781.203 951 C 1781.734 951.354 1788.833 951.529 1802.5 951.524 C 1816.167 951.519 1823.163 951.678 1823.488 952 C 1819.45 960.667 1816.758 966.167 1815.412 968.5 C 1814.065 970.833 1812.375 973.5 1810.341 976.5 C 1808.307 979.5 1805.742 982.725 1802.645 986.174 C 1799.548 989.623 1796.833 992.202 1794.5 993.91 C 1792.167 995.619 1789.667 996.974 1787 997.976 C 1784.333 998.978 1781 999.455 1777 999.408 C 1774.333 998.089 1772.2 996.62 1770.601 995 C 1768.633 990.333 1767.553 986.667 1767.363 984 C 1767.172 981.333 1767.319 977.833 1767.804 973.5 C 1768.289 969.167 1769.687 962.882 1772 954.645 C 1729.333 954.518 1707.517 954.637 1706.552 955 C 1703.922 965.667 1702.434 972.5 1702.088 975.5 C 1701.743 978.5 1701.579 982.167 1701.598 986.5 C 1701.616 990.833 1701.963 995 1702.639 999 C 1703.314 1003 1703.972 1006 1704.611 1008 C 1705.251 1010 1706.088 1012.167 1707.124 1014.5 C 1708.159 1016.833 1709.517 1019.333 1711.199 1022 C 1712.88 1024.667 1715.601 1027.884 1719.36 1031.651 C 1723.12 1035.418 1726 1037.977 1728 1039.327 C 1730 1040.677 1732.333 1042.014 1735 1043.34 C 1737.667 1044.665 1740.5 1045.838 1743.5 1046.86 C 1746.5 1047.881 1749.667 1048.719 1753 1049.373 C 1756.333 1050.027 1759.833 1050.509 1763.5 1050.821 C 1767.167 1051.133 1770.271 1051.24 1772.812 1051.144 C 1775.354 1051.048 1778.021 1050.889 1780.812 1050.666 C 1783.604 1050.443 1786.667 1050.007 1790 1049.359 C 1793.333 1048.711 1797.5 1047.537 1802.5 1045.836 C 1807.5 1044.135 1812.5 1041.973 1817.5 1039.348 C 1822.5 1036.724 1827.667 1033.414 1833 1029.417 C 1838.333 1025.42 1843.245 1021.185 1847.735 1016.711 C 1852.224 1012.237 1856.456 1007.5 1860.431 1002.5 C 1864.405 997.5 1868.572 991.5 1872.93 984.5 C 1877.288 977.5 1881.261 970.167 1884.849 962.5 C 1888.437 954.833 1891.434 947.5 1893.839 940.5 C 1896.245 933.5 1898.264 926.333 1899.896 919 C 1901.528 911.667 1902.524 906.5 1902.883 903.5 C 1903.242 900.5 1903.476 896.667 1903.583 892 C 1903.691 887.333 1903.511 882.333 1903.044 877 C 1902.578 871.667 1902.021 867.667 1901.375 865 C 1900.728 862.333 1899.908 859.667 1898.915 857 C 1897.922 854.333 1896.906 852 1895.867 850 C 1894.828 848 1893.502 845.833 1891.888 843.5 C 1890.274 841.167 1888.223 838.758 1885.734 836.275 C 1883.245 833.791 1881.333 832.052 1880 831.057 C 1878.667 830.063 1876.167 828.577 1872.5 826.601 C 1868.833 824.625 1865.5 823.136 1862.5 822.135 C 1859.5 821.133 1856.333 820.302 1853 819.64 C 1849.667 818.978 1846.333 818.496 1843 818.193 C 1839.667 817.89 1836 817.756 1832 817.792 C 1828 817.827 1824.333 818.013 1821 818.348 C 1817.667 818.684 1814 819.303 1810 820.205 C 1806 821.108 1802.5 822.08 1799.5 823.121 C 1796.5 824.163 1793.333 825.506 1790 827.151 C 1786.667 828.795 1782.667 831.269 1778 834.571 C 1773.333 837.874 1768.921 841.604 1764.764 845.762 C 1760.606 849.921 1757.725 853 1756.122 855 C 1754.519 857 1752.542 859.667 1750.192 863 C 1747.842 866.333 1745.68 869.667 1743.707 873 C 1741.733 876.333 1739.059 881.5 1735.683 888.5 C 1732.307 895.5 1730.366 899.667 1729.858 901 Z M 2016 978.438 L 2016 1017.454 C 2026 1016.74 2040.166 1015.256 2058.497 1013 C 2107.119 889.667 2131.779 827 2132.478 825 C 2132.159 824.685 2120.833 824.531 2098.5 824.537 C 2076.167 824.542 2064.667 824.72 2064 825.068 C 2035.618 897.689 2020.55 936 2018.795 940 C 2017.04 944 2015.172 947.667 2013.19 951 C 2011.207 954.333 2008.847 957.531 2006.108 960.594 C 2003.369 963.657 2001 965.869 1999 967.229 C 1997 968.589 1995.5 969.468 1994.5 969.864 C 1993.5 970.26 1992.333 970.627 1991 970.964 C 1989.667 971.302 1988.167 971.5 1986.5 971.558 C 1984.833 971.617 1983.333 971.601 1982 971.511 C 1980.667 971.421 1979.5 971.195 1978.5 970.834 C 1977.5 970.472 1976.5 969.917 1975.5 969.168 C 1974.5 968.42 1973.596 967.538 1972.787 966.523 C 1971.978 965.508 1971.425 964.667 1971.129 964 C 1970.832 963.333 1970.554 962 1970.294 960 C 1970.034 958 1970.18 955 1970.733 951 C 1971.287 947 1972.238 943 1973.587 939 C 1974.937 935 1989.868 897 2018.382 825 L 1949.789 825 C 1919.765 901.667 1903.899 943 1902.19 949 C 1900.482 955 1899.306 960 1898.663 964 C 1898.019 968 1897.649 971.333 1897.551 974 C 1897.453 976.667 1897.432 979.833 1897.488 983.5 C 1897.544 987.167 1897.933 990.833 1898.657 994.5 C 1899.38 998.167 1900.535 1001.833 1902.122 1005.5 C 1903.709 1009.167 1905.176 1012 1906.522 1014 C 1907.869 1016 1909.619 1018.051 1911.771 1020.152 C 1913.924 1022.253 1916.833 1024.319 1920.5 1026.349 C 1924.167 1028.379 1927.167 1029.719 1929.5 1030.368 C 1931.833 1031.018 1934.167 1031.496 1936.5 1031.802 C 1938.833 1032.109 1941.403 1032.218 1944.208 1032.131 C 1947.014 1032.044 1950.347 1031.723 1954.208 1031.17 C 1958.069 1030.617 1961.5 1029.859 1964.5 1028.896 C 1967.5 1027.933 1970.667 1026.616 1974 1024.945 C 1977.333 1023.274 1980 1021.752 1982 1020.379 C 1984 1019.006 1986.413 1017.099 1989.24 1014.66 C 1992.067 1012.22 1994.799 1009.5 1997.436 1006.5 C 2000.073 1003.5 2002.552 1000.333 2004.874 997 C 2007.196 993.667 2010.905 987.479 2016 978.438 Z M 1525.615 1073 C 1575.718 945.667 1601.179 881.549 1602 880.646 L 1654.275 881 L 1582.125 1066 C 1582.708 1066.54 1584 1066.743 1586 1066.609 C 1588 1066.475 1610.333 1063.867 1653 1058.786 L 1745.213 825 L 1555 824.702 L 1454.29 1081 C 1454.763 1081.346 1455.894 1081.432 1457.683 1081.259 C 1459.472 1081.086 1470.306 1079.899 1490.183 1077.698 C 1510.061 1075.497 1521.872 1073.931 1525.615 1073 Z M 821.241 1032 C 821.598 1029.333 821.721 966.667 821.61 844 C 791.87 843.825 774.167 843.887 768.5 844.188 C 762.833 844.489 757.5 845.129 752.5 846.108 C 747.5 847.087 742.833 848.418 738.5 850.101 C 734.167 851.784 730.833 853.313 728.5 854.686 C 726.167 856.06 723.5 858.038 720.5 860.62 C 717.5 863.202 715.112 865.578 713.337 867.747 C 711.562 869.916 710.006 872.167 708.668 874.5 C 707.33 876.833 706.158 879.333 705.153 882 C 704.148 884.667 703.308 887.667 702.635 891 C 701.961 894.333 701.616 899 701.598 905 C 701.581 911 702.079 916.333 703.092 921 C 704.106 925.667 705.138 929.167 706.188 931.5 C 707.239 933.833 708.562 936.333 710.159 939 C 711.756 941.667 714.128 944.839 717.277 948.518 C 720.426 952.196 723.167 955.101 725.5 957.234 C 727.833 959.367 730.667 961.671 734 964.146 C 737.333 966.622 739.071 968.24 739.213 969 C 712.243 1009 698.563 1029.333 698.172 1030 C 697.781 1030.667 697.65 1031.333 697.778 1032 L 732 1032.037 L 779.14 962 C 779.465 961.333 779.189 960.62 778.314 959.86 C 777.438 959.1 773 955.986 765 950.517 C 757 945.048 751.263 940.595 747.788 937.157 C 744.313 933.719 741.926 931 740.627 929 C 739.327 927 738.151 924.667 737.099 922 C 736.047 919.333 735.223 916.333 734.626 913 C 734.029 909.667 733.709 906.833 733.666 904.5 C 733.623 902.167 733.76 899.833 734.077 897.5 C 734.394 895.167 735.092 892.667 736.172 890 C 737.251 887.333 738.659 884.915 740.396 882.746 C 742.132 880.577 744 878.728 746 877.198 C 748 875.668 750.167 874.384 752.5 873.345 C 754.833 872.305 757.667 871.44 761 870.75 C 764.333 870.06 769.333 869.67 776 869.582 C 782.667 869.493 787.112 869.633 789.336 870 L 789.415 1031 C 789.805 1031.784 790.167 1032.184 790.5 1032.2 C 790.833 1032.216 801.08 1032.149 821.241 1032 Z M 1215.956 1023 L 1216.396 999 C 1215.465 998.971 1212.833 1000.035 1208.5 1002.191 C 1204.167 1004.348 1200 1006.07 1196 1007.357 C 1192 1008.645 1189 1009.47 1187 1009.834 C 1185 1010.198 1182.667 1010.431 1180 1010.534 C 1177.333 1010.637 1174.333 1010.639 1171 1010.54 C 1167.667 1010.441 1165.167 1010.222 1163.5 1009.883 C 1161.833 1009.545 1159.5 1008.673 1156.5 1007.268 C 1153.5 1005.863 1151.267 1004.468 1149.802 1003.081 C 1148.337 1001.694 1147.264 1000.5 1146.583 999.5 C 1145.902 998.5 1144.896 996.333 1143.566 993 C 1142.235 989.667 1140.989 983.667 1139.828 975 C 1140.609 974.691 1166.333 974.539 1217 974.542 C 1217.329 974.181 1217.463 970 1217.401 962 C 1217.34 954 1217.149 948.333 1216.828 945 C 1216.508 941.667 1216.003 938.333 1215.314 935 C 1214.624 931.667 1213.78 928.5 1212.781 925.5 C 1211.782 922.5 1210.482 919.5 1208.879 916.5 C 1207.277 913.5 1205.23 910.592 1202.738 907.777 C 1200.246 904.962 1197.833 902.763 1195.5 901.18 C 1193.167 899.598 1190.667 898.272 1188 897.204 C 1185.333 896.136 1182.333 895.256 1179 894.563 C 1175.667 893.871 1171.333 893.528 1166 893.535 C 1160.667 893.542 1156.833 893.736 1154.5 894.116 C 1152.167 894.496 1149.167 895.364 1145.5 896.719 C 1141.833 898.074 1138.333 899.886 1135 902.154 C 1131.667 904.422 1128.755 906.963 1126.266 909.778 C 1123.776 912.593 1121.414 916 1119.178 920 C 1116.943 924 1115.142 928.167 1113.776 932.5 C 1112.411 936.833 1111.37 941.5 1110.654 946.5 C 1109.937 951.5 1109.58 957.5 1109.581 964.5 C 1109.583 971.5 1109.946 977.5 1110.673 982.5 C 1111.399 987.5 1112.393 992 1113.654 996 C 1114.916 1000 1116.239 1003.333 1117.621 1006 C 1119.004 1008.667 1120.938 1011.5 1123.424 1014.5 C 1125.909 1017.5 1128.46 1020.058 1131.076 1022.174 C 1133.692 1024.29 1136.667 1026.188 1140 1027.868 C 1143.333 1029.548 1146.833 1030.893 1150.5 1031.904 C 1154.167 1032.914 1157.5 1033.596 1160.5 1033.949 C 1163.5 1034.302 1168.351 1034.399 1175.053 1034.239 C 1181.754 1034.08 1185.921 1033.901 1187.553 1033.704 C 1189.184 1033.506 1191.833 1032.909 1195.5 1031.913 C 1199.167 1030.916 1202.5 1029.763 1205.5 1028.453 C 1208.5 1027.144 1211.985 1025.326 1215.956 1023 Z M 1450.496 1026 L 1450.382 1002 C 1450.127 1001.773 1449.333 1002.096 1448 1002.97 C 1446.667 1003.845 1444.5 1004.955 1441.5 1006.302 C 1438.5 1007.649 1435.167 1008.68 1431.5 1009.394 C 1427.833 1010.109 1424.333 1010.466 1421 1010.467 C 1417.667 1010.468 1415 1010.296 1413 1009.951 C 1411 1009.606 1409.167 1009.106 1407.5 1008.452 C 1405.833 1007.798 1404.167 1006.932 1402.5 1005.854 C 1400.833 1004.775 1399.093 1003.196 1397.279 1001.118 C 1395.466 999.039 1393.915 996.667 1392.628 994 C 1391.34 991.333 1390.351 988.833 1389.661 986.5 C 1388.97 984.167 1388.29 980.167 1387.62 974.5 C 1386.95 968.833 1386.786 963.167 1387.13 957.5 C 1387.473 951.833 1387.987 947.5 1388.671 944.5 C 1389.355 941.5 1390.505 938.333 1392.121 935 C 1393.737 931.667 1395.29 929.167 1396.781 927.5 C 1398.271 925.833 1399.68 924.461 1401.008 923.384 C 1402.336 922.306 1403.667 921.424 1405 920.738 C 1406.333 920.052 1408.333 919.354 1411 918.642 C 1413.667 917.931 1417.333 917.597 1422 917.64 C 1426.667 917.684 1431.333 918.375 1436 919.713 C 1440.667 921.052 1445.333 922.969 1450 925.464 C 1450.349 925.155 1450.528 916.667 1450.536 900 C 1449.512 899.106 1448.167 898.321 1446.5 897.647 C 1444.833 896.973 1441.5 896.131 1436.5 895.121 C 1431.5 894.112 1425.667 893.596 1419 893.574 C 1412.333 893.552 1407.833 893.721 1405.5 894.081 C 1403.167 894.441 1400 895.314 1396 896.701 C 1392 898.089 1388.167 899.919 1384.5 902.194 C 1380.833 904.468 1377.762 906.838 1375.287 909.303 C 1372.812 911.768 1371.075 913.667 1370.077 915 C 1369.079 916.333 1367.582 918.833 1365.584 922.5 C 1363.587 926.167 1361.942 930 1360.65 934 C 1359.358 938 1358.351 942.333 1357.629 947 C 1356.907 951.667 1356.552 957.667 1356.565 965 C 1356.578 972.333 1356.941 978.333 1357.654 983 C 1358.367 987.667 1359.217 991.667 1360.204 995 C 1361.191 998.333 1362.697 1002 1364.722 1006 C 1366.748 1010 1368.634 1013.083 1370.38 1015.249 C 1372.127 1017.415 1374.333 1019.635 1377 1021.91 C 1379.667 1024.184 1382.667 1026.166 1386 1027.855 C 1389.333 1029.543 1392.833 1030.891 1396.5 1031.898 C 1400.167 1032.904 1403.5 1033.585 1406.5 1033.94 C 1409.5 1034.294 1414.17 1034.393 1420.511 1034.236 C 1426.851 1034.079 1431.851 1033.568 1435.511 1032.704 C 1439.17 1031.841 1441.833 1031.04 1443.5 1030.303 C 1445.167 1029.566 1447.499 1028.131 1450.496 1026 Z M 953.221 1032 L 953.408 896 L 924.209 896 L 923.966 950 C 923.322 950.338 908.333 950.521 879 950.549 C 878.633 950.183 878.415 932 878.348 896 L 849.036 896 L 848.919 1032 L 878.152 1032 C 878.333 994 878.615 974.81 879 974.43 C 908.333 974.444 923.302 974.634 923.905 975 L 924 1031.237 C 924.312 1031.746 924.723 1032.045 925.234 1032.136 C 925.745 1032.226 935.074 1032.181 953.221 1032 Z M 1098.362 1063 L 1098.609 1009 C 1098.203 1008.596 1095.833 1008.395 1091.5 1008.395 C 1087.167 1008.395 1084.828 1007.93 1084.485 1007 L 1084.379 896 L 993 895.748 C 992.562 921.249 992.182 936.667 991.858 942 C 991.534 947.333 991.036 953 990.365 959 C 989.693 965 988.862 970.833 987.872 976.5 C 986.883 982.167 985.87 987 984.835 991 C 983.8 995 981.983 1000.333 979.386 1007 C 978.462 1007.915 976.833 1008.376 974.5 1008.383 C 972.167 1008.391 970.546 1008.596 969.637 1009 L 969.933 1063 L 996.361 1063 L 997 1032.375 L 1071 1032.046 C 1071.403 1032.682 1071.711 1043 1071.925 1063 L 1098.362 1063 Z M 1355.059 1032 C 1354.566 1030.667 1353.486 1028.833 1351.818 1026.5 C 1350.151 1024.167 1334.053 1002 1303.524 960 L 1349.345 896 L 1319 895.932 L 1272 960.527 C 1271.619 959.509 1271.324 938 1271.115 896 L 1242 895.68 L 1241.941 1032 L 1271 1031.836 C 1271.283 988.612 1271.617 966.176 1272 964.527 L 1321 1031.699 C 1321.667 1032.091 1333.02 1032.191 1355.059 1032 Z M 1140 952.225 C 1140.376 946.075 1140.761 942 1141.156 940 C 1141.551 938 1142.107 936 1142.825 934 C 1143.542 932 1144.353 930.167 1145.257 928.5 C 1146.16 926.833 1147.51 925.103 1149.306 923.308 C 1151.102 921.513 1153.167 920.107 1155.5 919.09 C 1157.833 918.073 1160.333 917.475 1163 917.296 C 1165.667 917.117 1167.833 917.132 1169.5 917.34 C 1171.167 917.548 1172.667 917.961 1174 918.579 C 1175.333 919.196 1176.865 920.254 1178.595 921.752 C 1180.325 923.251 1181.886 925.333 1183.278 928 C 1184.669 930.667 1185.692 933.833 1186.346 937.5 C 1187 941.167 1187.39 946 1187.515 952 C 1187.172 952.344 1171.333 952.418 1140 952.225 Z M 1054 1008.435 L 1007.283 1008 C 1010.664 996.667 1013.024 987.167 1014.362 979.5 C 1015.7 971.833 1016.697 964 1017.354 956 C 1018.01 948 1018.559 935.962 1019 919.885 C 1042.333 919.633 1054.196 919.671 1054.588 920 C 1054.717 977.333 1054.758 1006.333 1054.711 1007 C 1054.665 1007.667 1054.427 1008.145 1054 1008.435 Z M 507.789 1030.721 C 511.263 1029.868 514.667 1028.577 518 1026.848 C 521.333 1025.119 524.411 1023.046 527.233 1020.628 C 530.056 1018.209 532.625 1015.333 534.942 1012 C 537.259 1008.667 539.068 1005.333 540.368 1002 C 541.668 998.667 542.652 995 543.321 991 C 543.99 987 544.321 982.833 544.315 978.5 C 544.309 974.167 543.992 970.167 543.366 966.5 C 542.739 962.833 541.769 959.333 540.456 956 C 539.143 952.667 537.637 949.667 535.938 947 C 534.239 944.333 532.324 941.926 530.195 939.778 C 528.065 937.63 525.833 935.761 523.5 934.171 C 521.167 932.58 518.5 931.108 515.5 929.755 C 512.5 928.402 509.5 927.359 506.5 926.628 C 503.5 925.897 500.167 925.42 496.5 925.198 C 492.833 924.976 488.833 925.167 484.5 925.772 C 480.167 926.376 476.667 927.153 474 928.103 C 471.333 929.054 468.5 930.389 465.5 932.11 C 462.5 933.832 459.434 936.244 456.303 939.346 C 453.172 942.449 450.78 945.333 449.126 948 C 447.473 950.667 446.164 953.333 445.198 956 C 444.233 958.667 443.405 962 442.715 966 C 442.025 970 441.675 974.167 441.664 978.5 C 441.654 982.833 441.963 987 442.593 991 C 443.223 995 444.109 998.5 445.251 1001.5 C 446.393 1004.5 447.901 1007.5 449.774 1010.5 C 451.646 1013.5 453.819 1016.23 456.291 1018.689 C 458.764 1021.148 461 1023.052 463 1024.4 C 465 1025.749 467.5 1027.059 470.5 1028.332 C 473.5 1029.604 476.5 1030.584 479.5 1031.271 C 482.5 1031.958 485.833 1032.351 489.5 1032.45 C 493.167 1032.549 496.263 1032.499 498.789 1032.299 C 501.315 1032.1 504.315 1031.574 507.789 1030.721 Z M 601.603 946 L 633 945.608 C 633.323 945.203 633.409 939 633.257 927 L 547.13 927 L 547 945.256 L 578.354 946 L 578.433 1030 C 578.811 1030.417 586.333 1030.604 601 1030.563 C 601.312 1030.188 601.513 1002 601.603 946 Z M 494 1013.221 C 492 1013.337 490 1013.233 488 1012.911 C 486 1012.589 483.667 1011.77 481 1010.455 C 478.333 1009.139 475.925 1007.401 473.775 1005.241 C 471.625 1003.08 470.051 1001 469.053 999 C 468.055 997 467.233 994.667 466.589 992 C 465.944 989.333 465.616 985 465.606 979 C 465.596 973 466.104 968.167 467.13 964.5 C 468.156 960.833 469.179 958.167 470.2 956.5 C 471.221 954.833 472.443 953.289 473.866 951.866 C 475.289 950.444 476.833 949.214 478.5 948.176 C 480.167 947.138 482 946.285 484 945.618 C 486 944.952 489 944.626 493 944.642 C 497 944.657 500 945.008 502 945.695 C 504 946.381 505.5 947.031 506.5 947.644 C 507.5 948.258 508.667 949.154 510 950.332 C 511.333 951.511 512.748 953.084 514.243 955.05 C 515.738 957.017 516.788 958.667 517.392 960 C 517.996 961.333 518.639 963.5 519.322 966.5 C 520.004 969.5 520.331 973.667 520.303 979 C 520.275 984.333 520.117 987.833 519.83 989.5 C 519.543 991.167 518.891 993.333 517.876 996 C 516.861 998.667 515.628 1000.919 514.177 1002.756 C 512.726 1004.593 511 1006.303 509 1007.885 C 507 1009.466 505.167 1010.6 503.5 1011.287 C 501.833 1011.973 500.333 1012.438 499 1012.682 C 497.667 1012.926 496 1013.105 494 1013.221 Z" fill="#0A0245" fill-rule="evenodd" clip-rule="evenodd" shape-rendering="geometricPrecision" />
  </g>
</svg>