<?xml version='1.0' encoding='UTF-8'?>
<svg xmlns="http://www.w3.org/2000/svg" xmlns:inkscape="http://www.inkscape.org/namespaces/inkscape" width="2547" height="681" viewBox="10.683 5.583 2546.804 680.664">
  <g inkscape:groupmode="layer" inkscape:label="Layer 1" id="layer1">
    <path d="M 1664 25.966 L 1578 25.687 C 1576.912 35.896 1576.011 42.167 1575.297 44.5 C 1574.583 46.833 1573.755 48.833 1572.814 50.5 C 1571.872 52.167 1570.668 53.726 1569.201 55.178 C 1567.734 56.63 1566.333 57.708 1565 58.412 C 1563.667 59.116 1562.5 59.617 1561.5 59.915 C 1560.5 60.213 1559.167 60.394 1557.5 60.459 C 1555.833 60.523 1554.167 60.507 1552.5 60.411 C 1550.833 60.314 1549.167 59.973 1547.5 59.386 C 1545.833 58.8 1544.38 58.089 1543.141 57.253 C 1541.901 56.418 1540.659 55.333 1539.413 54 C 1538.168 52.667 1536.878 50.5 1535.545 47.5 C 1534.211 44.5 1532.696 37.194 1531 25.583 L 1445.974 26 C 1446.368 35.333 1446.902 42 1447.576 46 C 1448.25 50 1448.954 53.333 1449.686 56 C 1450.418 58.667 1451.596 62.167 1453.22 66.5 C 1454.844 70.833 1456.648 74.833 1458.634 78.5 C 1460.62 82.167 1462.447 85.167 1464.115 87.5 C 1465.784 89.833 1469.015 93.41 1473.809 98.231 C 1478.603 103.052 1482.333 106.445 1485 108.409 C 1487.667 110.373 1490.667 112.302 1494 114.196 C 1497.333 116.089 1500.167 117.58 1502.5 118.667 C 1504.833 119.754 1508 120.953 1512 122.262 C 1516 123.571 1519.667 124.585 1523 125.303 C 1526.333 126.022 1530.833 126.705 1536.5 127.351 C 1542.167 127.998 1548.73 128.267 1556.19 128.16 C 1563.651 128.053 1569.817 127.725 1574.69 127.176 C 1579.563 126.627 1583.5 126.02 1586.5 125.357 C 1589.5 124.694 1594.167 123.203 1600.5 120.882 C 1606.833 118.562 1612.667 115.711 1618 112.328 C 1623.333 108.945 1628.076 105.378 1632.228 101.627 C 1636.381 97.876 1640.091 93.833 1643.361 89.5 C 1646.63 85.167 1649.083 81.5 1650.719 78.5 C 1652.355 75.5 1653.889 72.333 1655.321 69 C 1656.752 65.667 1658.297 61 1659.956 55 C 1661.615 49 1662.963 39.322 1664 25.966 Z M 401.214 665.652 C 415.738 665.421 430.5 664.819 445.5 663.847 C 460.5 662.876 470.5 662.055 475.5 661.386 C 480.5 660.716 485.667 659.86 491 658.817 C 496.333 657.773 500.833 656.77 504.5 655.806 C 508.167 654.842 512.333 653.526 517 651.858 C 521.667 650.189 527.167 647.707 533.5 644.412 C 539.833 641.117 545 638.108 549 635.385 C 553 632.662 557 629.662 561 626.386 C 565 623.11 569.408 619.06 574.224 614.236 C 579.041 609.412 582.946 605.167 585.94 601.5 C 588.934 597.833 591.91 593.833 594.87 589.5 C 597.829 585.167 600.501 580.833 602.885 576.5 C 605.269 572.167 607.771 566.5 610.392 559.5 C 613.012 552.5 614.836 547 615.865 543 C 616.894 539 617.898 534.333 618.876 529 C 619.855 523.667 620.694 518.167 621.396 512.5 C 622.097 506.833 622.758 499.833 623.379 491.5 C 623.999 483.167 624.503 472.5 624.889 459.5 C 625.274 446.5 625.468 416 625.468 368 C 625.469 320 625.261 289.333 624.846 276 C 624.431 262.667 623.916 252 623.302 244 C 622.688 236 621.886 228.333 620.896 221 C 619.907 213.667 618.733 206.833 617.374 200.5 C 616.016 194.167 614.185 187.667 611.882 181 C 609.579 174.333 607.257 168.667 604.917 164 C 602.576 159.333 599.25 153.833 594.936 147.5 C 590.623 141.167 586.08 135.333 581.307 130 C 576.535 124.667 571.457 119.596 566.074 114.789 C 560.691 109.982 555.667 105.939 551 102.66 C 546.333 99.381 541.167 96.213 535.5 93.157 C 529.833 90.1 523.833 87.431 517.5 85.149 C 511.167 82.867 504.167 80.872 496.5 79.166 C 488.833 77.46 479.167 75.948 467.5 74.631 C 455.833 73.314 442 72.335 426 71.696 C 410 71.057 377 70.748 327 70.769 C 277 70.791 244.167 71.114 228.5 71.739 C 212.833 72.364 200.333 73.169 191 74.153 C 181.667 75.137 172.833 76.45 164.5 78.091 C 156.167 79.732 148.5 81.722 141.5 84.063 C 134.5 86.403 127.833 89.245 121.5 92.587 C 115.167 95.93 109 99.776 103 104.126 C 97 108.475 91.45 113.042 86.351 117.825 C 81.252 122.608 76.689 127.333 72.662 132 C 68.635 136.667 64.794 141.667 61.138 147 C 57.481 152.333 54.496 157.167 52.182 161.5 C 49.868 165.833 47.541 171.167 45.2 177.5 C 42.86 183.833 40.848 190.667 39.165 198 C 37.481 205.333 35.977 214.333 34.651 225 C 33.326 235.667 32.33 247.667 31.666 261 C 31.001 274.333 30.683 310.667 30.711 370 C 30.739 429.333 31.063 465 31.683 477 C 32.303 489 33.12 499.5 34.132 508.5 C 35.144 517.5 36.481 526 38.144 534 C 39.807 542 41.792 549.333 44.101 556 C 46.409 562.667 48.746 568.333 51.111 573 C 53.476 577.667 56.325 582.5 59.658 587.5 C 62.991 592.5 66.137 596.833 69.096 600.5 C 72.055 604.167 76.279 608.747 81.767 614.24 C 87.256 619.733 91.833 623.971 95.5 626.954 C 99.167 629.936 103.5 633.09 108.5 636.415 C 113.5 639.74 118.667 642.736 124 645.403 C 129.333 648.07 134.333 650.234 139 651.895 C 143.667 653.555 148.667 655.055 154 656.394 C 159.333 657.733 163.833 658.732 167.5 659.392 C 171.167 660.052 175.5 660.717 180.5 661.385 C 185.5 662.054 192 662.721 200 663.387 C 208 664.052 215.833 664.552 223.5 664.887 C 231.167 665.221 245.167 665.54 265.5 665.842 C 285.833 666.145 309.905 666.247 337.714 666.148 C 365.524 666.049 386.69 665.884 401.214 665.652 Z M 1036 578.991 C 1036.31 577.664 1036.467 547.333 1036.47 488 C 1036.157 487.664 1032.667 488.987 1026 491.971 C 1019.333 494.955 1013.167 497.28 1007.5 498.944 C 1001.833 500.609 996 501.941 990 502.94 C 984 503.939 977.5 504.552 970.5 504.779 C 963.5 505.006 957 504.821 951 504.223 C 945 503.626 940.5 502.981 937.5 502.289 C 934.5 501.596 931.5 500.743 928.5 499.73 C 925.5 498.717 922.333 497.41 919 495.809 C 915.667 494.208 913.167 492.874 911.5 491.805 C 909.833 490.737 907.178 488.669 903.533 485.602 C 899.888 482.534 896.645 479.333 893.803 476 C 890.96 472.667 888.228 468.667 885.605 464 C 882.982 459.333 880.504 453.833 878.172 447.5 C 875.839 441.167 873.993 435 872.632 429 C 871.272 423 870.105 416 869.132 408 C 868.159 400 867.507 392.167 867.175 384.5 C 866.843 376.833 866.841 368.333 867.168 359 C 867.495 349.667 868.142 341.167 869.108 333.5 C 870.075 325.833 871.234 319 872.586 313 C 873.939 307 875.281 302 876.613 298 C 877.945 294 879.43 290.167 881.067 286.5 C 882.705 282.833 884.378 279.5 886.086 276.5 C 887.795 273.5 890.207 270.02 893.324 266.061 C 896.441 262.101 899.5 258.712 902.5 255.893 C 905.5 253.074 908.5 250.659 911.5 248.649 C 914.5 246.638 917.333 244.969 920 243.64 C 922.667 242.311 926 240.964 930 239.598 C 934 238.233 938.667 237.066 944 236.096 C 949.333 235.127 956.5 234.633 965.5 234.614 C 974.5 234.595 981.5 234.923 986.5 235.596 C 991.5 236.27 996.833 237.283 1002.5 238.637 C 1008.167 239.99 1013.5 241.512 1018.5 243.203 C 1023.5 244.894 1029.333 247.308 1036 250.447 C 1036.311 249.482 1036.469 219 1036.474 159 C 1030.158 156.042 1025.167 153.905 1021.5 152.589 C 1017.833 151.272 1011.833 149.613 1003.5 147.611 C 995.167 145.609 986.5 144.132 977.5 143.18 C 968.5 142.228 959.5 141.756 950.5 141.763 C 941.5 141.771 933.5 142.099 926.5 142.749 C 919.5 143.399 912 144.535 904 146.158 C 896 147.781 888.5 149.754 881.5 152.076 C 874.5 154.399 868.167 156.89 862.5 159.549 C 856.833 162.208 852 164.715 848 167.069 C 844 169.424 839.333 172.601 834 176.602 C 828.667 180.603 823.822 184.669 819.466 188.802 C 815.111 192.934 810.55 197.833 805.784 203.5 C 801.018 209.167 796.787 214.833 793.091 220.5 C 789.395 226.167 785.747 232.5 782.146 239.5 C 778.545 246.5 775.387 253.5 772.672 260.5 C 769.957 267.5 767.608 274.5 765.626 281.5 C 763.645 288.5 761.985 295.333 760.646 302 C 759.308 308.667 758.145 316 757.156 324 C 756.167 332 755.483 339 755.105 345 C 754.727 351 754.564 360.167 754.617 372.5 C 754.669 384.833 755.025 395 755.683 403 C 756.341 411 757.324 419.167 758.63 427.5 C 759.936 435.833 761.583 444 763.572 452 C 765.56 460 767.904 467.833 770.605 475.5 C 773.305 483.167 775.834 489.5 778.192 494.5 C 780.55 499.5 783.715 505.333 787.688 512 C 791.661 518.667 795.986 525 800.663 531 C 805.34 537 809.48 541.833 813.082 545.5 C 816.685 549.167 820.905 553.062 825.743 557.186 C 830.581 561.31 835.5 565.038 840.5 568.37 C 845.5 571.702 850.833 574.838 856.5 577.776 C 862.167 580.715 868.167 583.389 874.5 585.798 C 880.833 588.208 887.167 590.228 893.5 591.858 C 899.833 593.488 906.333 594.807 913 595.815 C 919.667 596.823 926 597.513 932 597.885 C 938 598.256 944.714 598.368 952.143 598.221 C 959.571 598.074 966.405 597.738 972.643 597.215 C 978.881 596.691 985.5 595.763 992.5 594.43 C 999.5 593.097 1005.667 591.583 1011 589.888 C 1016.333 588.192 1024.667 584.56 1036 578.991 Z M 2537.445 592 L 2537.487 148 C 2537.162 147.426 2500.667 147.171 2428 147.235 C 2427.683 148.412 2427.525 296.667 2427.527 592 C 2427.842 592.314 2464.482 592.314 2537.445 592 Z M 1725.49 592 C 1725.533 300.667 1725.553 153.833 1725.548 151.5 C 1725.544 149.167 1725.361 147.72 1725 147.159 L 1616 147.229 C 1615.041 148.41 1613.255 151.833 1610.643 157.5 C 1608.031 163.167 1571.483 243.043 1501 397.13 C 1500.673 391.71 1500.508 308.667 1500.505 148 C 1500.168 147.448 1463.667 147.195 1391 147.241 C 1390.68 147.747 1390.521 296 1390.524 592 C 1390.841 592.314 1427.496 592.314 1500.487 592 L 1615 341.972 C 1615.357 343.324 1615.546 426.667 1615.568 592 L 1725.49 592 Z M 1348.357 592 L 1348 500.862 C 1248 500.801 1197.79 500.513 1197.371 500 L 1197.358 409 C 1197.786 408.606 1238.839 408.272 1320.518 408 L 1320.68 317 L 1198 316.685 C 1197.576 316.228 1197.354 290.333 1197.335 239 C 1197.778 238.638 1247.333 238.466 1346 238.485 C 1346.319 238.162 1346.476 223 1346.469 193 C 1346.462 163 1346.306 147.734 1346 147.203 L 1088 147.337 C 1087.578 149.112 1087.354 297.333 1087.328 592 L 1348.357 592 Z M 2215 290.735 C 2214.611 290.245 2214.278 242.456 2214 147.368 L 2105 147.279 C 2104.597 149.093 2104.403 297.333 2104.418 592 C 2201.006 592 2253.083 591.726 2260.65 591.177 C 2268.217 590.628 2274.833 589.87 2280.5 588.904 C 2286.167 587.937 2291.667 586.773 2297 585.411 C 2302.333 584.048 2307.667 582.379 2313 580.402 C 2318.333 578.425 2323.333 576.269 2328 573.932 C 2332.667 571.595 2337.5 568.766 2342.5 565.445 C 2347.5 562.124 2351 559.632 2353 557.97 C 2355 556.308 2357.748 553.73 2361.243 550.238 C 2364.738 546.746 2367.787 543.333 2370.388 540 C 2372.99 536.667 2375.658 532.667 2378.391 528 C 2381.124 523.333 2383.641 518.333 2385.94 513 C 2388.239 507.667 2390.391 501.333 2392.394 494 C 2394.397 486.667 2395.89 479.667 2396.873 473 C 2397.856 466.333 2398.533 460.167 2398.903 454.5 C 2399.274 448.833 2399.423 442 2399.351 434 C 2399.279 426 2398.773 418 2397.832 410 C 2396.892 402 2395.75 395.167 2394.408 389.5 C 2393.065 383.833 2391.551 378.667 2389.864 374 C 2388.177 369.333 2386.523 365.333 2384.901 362 C 2383.28 358.667 2381.462 355.333 2379.448 352 C 2377.435 348.667 2375.414 345.667 2373.385 343 C 2371.357 340.333 2368.452 337.087 2364.671 333.26 C 2360.89 329.433 2358 326.691 2356 325.032 C 2354 323.373 2351.333 321.387 2348 319.073 C 2344.667 316.758 2341.5 314.755 2338.5 313.062 C 2335.5 311.369 2331.833 309.531 2327.5 307.547 C 2323.167 305.564 2319.167 303.917 2315.5 302.607 C 2311.833 301.296 2305.833 299.633 2297.5 297.615 C 2289.167 295.598 2281.167 294.102 2273.5 293.127 C 2265.833 292.152 2258.833 291.498 2252.5 291.165 C 2246.167 290.831 2233.667 290.688 2215 290.735 Z M 1978.603 361 C 1993.534 355.943 2003 352.408 2007 350.394 C 2011 348.381 2014.5 346.391 2017.5 344.425 C 2020.5 342.458 2023.667 340.097 2027 337.341 C 2030.333 334.585 2032.856 332.339 2034.569 330.603 C 2036.281 328.868 2038.328 326.5 2040.709 323.5 C 2043.09 320.5 2044.96 317.833 2046.318 315.5 C 2047.676 313.167 2049.02 310.5 2050.351 307.5 C 2051.681 304.5 2052.992 300.833 2054.285 296.5 C 2055.577 292.167 2056.733 286.333 2057.752 279 C 2058.771 271.667 2059.306 265.167 2059.358 259.5 C 2059.409 253.833 2059.27 248.833 2058.939 244.5 C 2058.609 240.167 2058.101 236 2057.416 232 C 2056.731 228 2056.023 224.667 2055.294 222 C 2054.565 219.333 2053.574 216.333 2052.322 213 C 2051.07 209.667 2049.228 205.833 2046.797 201.5 C 2044.366 197.167 2041.792 193.355 2039.075 190.065 C 2036.358 186.775 2033.667 183.894 2031 181.423 C 2028.333 178.951 2025.5 176.692 2022.5 174.646 C 2019.5 172.599 2015.833 170.428 2011.5 168.13 C 2007.167 165.832 2002.5 163.707 1997.5 161.756 C 1992.5 159.804 1987.667 158.145 1983 156.777 C 1978.333 155.41 1971.5 153.893 1962.5 152.226 C 1953.5 150.558 1944.833 149.365 1936.5 148.645 C 1928.167 147.926 1873.667 147.472 1773 147.284 C 1772.597 149.095 1772.404 297.333 1772.421 592 C 1866.64 592 1917.958 591.72 1926.375 591.16 C 1934.792 590.6 1943.833 589.503 1953.5 587.871 C 1963.167 586.239 1972.167 584.219 1980.5 581.811 C 1988.833 579.404 1996 576.9 2002 574.3 C 2008 571.701 2013.667 568.74 2019 565.417 C 2024.333 562.095 2029.407 558.361 2034.221 554.217 C 2039.035 550.072 2042.763 546.5 2045.406 543.5 C 2048.048 540.5 2050.212 537.833 2051.898 535.5 C 2053.583 533.167 2055.221 530.667 2056.812 528 C 2058.403 525.333 2059.896 522.5 2061.292 519.5 C 2062.687 516.5 2064.048 513 2065.375 509 C 2066.701 505 2067.87 500.5 2068.882 495.5 C 2069.893 490.5 2070.575 486.333 2070.928 483 C 2071.28 479.667 2071.459 473.5 2071.464 464.5 C 2071.469 455.5 2071.289 449.333 2070.924 446 C 2070.559 442.667 2069.877 438.667 2068.879 434 C 2067.88 429.333 2066.869 425.5 2065.846 422.5 C 2064.823 419.5 2063.502 416.333 2061.884 413 C 2060.265 409.667 2058.454 406.5 2056.451 403.5 C 2054.448 400.5 2052.206 397.646 2049.723 394.937 C 2047.241 392.228 2044.167 389.35 2040.5 386.303 C 2036.833 383.256 2033.667 380.905 2031 379.252 C 2028.333 377.598 2025.667 376.077 2023 374.688 C 2020.333 373.3 2016.333 371.593 2011 369.568 C 2005.667 367.543 1994.868 364.687 1978.603 361 Z M 329 527.254 C 307 539.27 291.167 547.305 281.5 551.358 C 271.833 555.411 264.5 558.252 259.5 559.879 C 254.5 561.507 250 562.828 246 563.843 C 242 564.857 237.167 565.863 231.5 566.858 C 225.833 567.854 221.333 568.507 218 568.817 C 214.667 569.127 210.833 569.306 206.5 569.356 C 202.167 569.405 198.167 569.258 194.5 568.916 C 190.833 568.574 187.333 568.062 184 567.38 C 180.667 566.698 177.5 565.86 174.5 564.867 C 171.5 563.874 168.333 562.554 165 560.907 C 161.667 559.259 159 557.753 157 556.388 C 155 555.022 152.098 552.45 148.295 548.67 C 144.491 544.89 141.615 541.5 139.665 538.5 C 137.716 535.5 136.063 532.5 134.707 529.5 C 133.351 526.5 132.018 522.5 130.708 517.5 C 129.398 512.5 128.554 508.5 128.175 505.5 C 127.797 502.5 127.581 499.333 127.527 496 C 127.473 492.667 127.637 487.833 128.019 481.5 C 128.401 475.167 128.93 470 129.607 466 C 130.284 462 131.289 457.333 132.62 452 C 133.952 446.667 135.939 440.167 138.581 432.5 C 141.223 424.833 144.405 416.833 148.126 408.5 C 151.848 400.167 158.965 386.667 169.476 368 C 162.246 355.333 156.975 345.667 153.664 339 C 150.354 332.333 147.701 326.667 145.705 322 C 143.709 317.333 141.535 311.667 139.184 305 C 136.832 298.333 134.982 292.5 133.634 287.5 C 132.285 282.5 131.11 277.333 130.108 272 C 129.106 266.667 128.431 262.333 128.084 259 C 127.737 255.667 127.554 251 127.534 245 C 127.514 239 127.855 233.5 128.557 228.5 C 129.258 223.5 130.431 218.5 132.075 213.5 C 133.719 208.5 135.574 204.167 137.638 200.5 C 139.702 196.833 141.378 194.167 142.665 192.5 C 143.952 190.833 145.83 188.788 148.298 186.363 C 150.766 183.939 153.167 181.879 155.5 180.183 C 157.833 178.487 160.667 176.794 164 175.105 C 167.333 173.415 170.333 172.101 173 171.163 C 175.667 170.225 178.5 169.4 181.5 168.689 C 184.5 167.979 187.333 167.446 190 167.09 C 192.667 166.734 196.167 166.512 200.5 166.425 C 204.833 166.337 208.833 166.341 212.5 166.438 C 216.167 166.535 219.5 166.763 222.5 167.124 C 225.5 167.484 230.833 168.488 238.5 170.136 C 246.167 171.783 254 173.944 262 176.618 C 270 179.293 277.167 181.99 283.5 184.711 C 289.833 187.432 295.333 189.952 300 192.271 C 304.667 194.59 314.333 199.988 329 208.465 C 337.667 203.259 344.833 199.157 350.5 196.157 C 356.167 193.158 362.333 190.16 369 187.164 C 375.667 184.167 381.667 181.66 387 179.644 C 392.333 177.627 397.167 175.954 401.5 174.626 C 405.833 173.297 410.833 171.973 416.5 170.654 C 422.167 169.335 427.5 168.331 432.5 167.644 C 437.5 166.956 442.5 166.561 447.5 166.459 C 452.5 166.356 456.5 166.348 459.5 166.435 C 462.5 166.521 465.333 166.75 468 167.121 C 470.667 167.492 474.833 168.501 480.5 170.149 C 486.167 171.797 491.167 173.811 495.5 176.192 C 499.833 178.572 503 180.563 505 182.163 C 507 183.764 508.884 185.47 510.652 187.282 C 512.419 189.094 514.16 191.167 515.872 193.5 C 517.585 195.833 519.26 198.5 520.899 201.5 C 522.538 204.5 524.187 208.5 525.844 213.5 C 527.502 218.5 528.694 223.833 529.42 229.5 C 530.146 235.167 530.493 240.5 530.461 245.5 C 530.43 250.5 530.23 254.833 529.862 258.5 C 529.494 262.167 528.477 268 526.813 276 C 525.148 284 522.994 292 520.35 300 C 517.706 308 514.391 316.5 510.405 325.5 C 506.419 334.5 499.12 348.667 488.507 368 C 494.394 378 499.502 387.333 503.83 396 C 508.158 404.667 511.493 411.833 513.834 417.5 C 516.175 423.167 518.345 429 520.345 435 C 522.344 441 524.01 446.667 525.344 452 C 526.677 457.333 527.84 463.5 528.832 470.5 C 529.824 477.5 530.348 483.833 530.402 489.5 C 530.456 495.167 530.302 499.833 529.939 503.5 C 529.576 507.167 528.881 511.167 527.853 515.5 C 526.825 519.833 525.451 524 523.728 528 C 522.006 532 520.031 535.667 517.801 539 C 515.572 542.333 512.881 545.568 509.728 548.705 C 506.576 551.842 503.5 554.42 500.5 556.437 C 497.5 558.454 494.167 560.286 490.5 561.932 C 486.833 563.578 483.167 564.906 479.5 565.915 C 475.833 566.925 471.833 567.715 467.5 568.286 C 463.167 568.857 458.833 569.192 454.5 569.291 C 450.167 569.389 445.667 569.241 441 568.846 C 436.333 568.451 431.333 567.781 426 566.835 C 420.667 565.89 415.333 564.711 410 563.298 C 404.667 561.885 398.333 559.872 391 557.257 C 383.667 554.643 377.667 552.311 373 550.263 C 368.333 548.215 362.167 545.231 354.5 541.312 C 346.833 537.393 338.333 532.707 329 527.254 Z M 1882.455 319 C 1882.439 263.667 1882.621 235.813 1883 235.438 C 1906.333 235.506 1920 235.9 1924 236.622 C 1928 237.343 1931.167 238.183 1933.5 239.141 C 1935.833 240.1 1938 241.313 1940 242.78 C 1942 244.248 1943.577 245.651 1944.732 246.991 C 1945.886 248.33 1946.968 250 1947.977 252 C 1948.986 254 1949.785 256 1950.375 258 C 1950.964 260 1951.433 262.167 1951.781 264.5 C 1952.129 266.833 1952.333 270 1952.394 274 C 1952.455 278 1952.293 281.667 1951.907 285 C 1951.52 288.333 1950.831 291.5 1949.838 294.5 C 1948.846 297.5 1947.458 300.271 1945.675 302.812 C 1943.892 305.354 1941.833 307.59 1939.5 309.521 C 1937.167 311.452 1934.167 313.23 1930.5 314.855 C 1926.833 316.481 1923.5 317.607 1920.5 318.235 C 1917.5 318.863 1910.5 319.278 1899.5 319.48 C 1888.5 319.683 1882.818 319.523 1882.455 319 Z M 342.338 448.214 C 345.446 447.69 348.167 447.089 350.5 446.411 C 352.833 445.733 356.5 444.235 361.5 441.915 C 366.5 439.596 370.667 437.274 374 434.949 C 377.333 432.623 381.064 429.384 385.192 425.23 C 389.32 421.077 392.893 416.667 395.912 412 C 398.931 407.333 401.42 402.5 403.38 397.5 C 405.34 392.5 406.649 388.5 407.308 385.5 C 407.967 382.5 408.465 379.5 408.802 376.5 C 409.139 373.5 409.163 369.167 408.875 363.5 C 408.587 357.833 407.935 352.833 406.919 348.5 C 405.904 344.167 404.565 340 402.902 336 C 401.239 332 399.721 328.833 398.347 326.5 C 396.974 324.167 395.308 321.667 393.352 319 C 391.395 316.333 388.514 313.125 384.708 309.374 C 380.903 305.624 376.667 302.218 372 299.157 C 367.333 296.097 362.5 293.575 357.5 291.593 C 352.5 289.611 347.333 288.126 342 287.138 C 336.667 286.151 331.5 285.674 326.5 285.707 C 321.5 285.74 317.833 285.919 315.5 286.244 C 313.167 286.568 310.167 287.202 306.5 288.145 C 302.833 289.089 298.667 290.602 294 292.686 C 289.333 294.77 284.667 297.449 280 300.724 C 275.333 304 271.099 307.698 267.296 311.819 C 263.493 315.94 260.086 320.5 257.073 325.5 C 254.061 330.5 251.727 335.333 250.07 340 C 248.413 344.667 247.25 348.833 246.579 352.5 C 245.908 356.167 245.582 361.333 245.603 368 C 245.624 374.667 246.129 380.333 247.117 385 C 248.106 389.667 249.096 393.333 250.087 396 C 251.079 398.667 252.239 401.333 253.566 404 C 254.893 406.667 257.223 410.333 260.553 415 C 263.884 419.667 267.625 423.91 271.775 427.731 C 275.925 431.551 280.167 434.796 284.5 437.464 C 288.833 440.133 293.667 442.445 299 444.399 C 304.333 446.354 309 447.683 313 448.385 C 317 449.088 322.113 449.366 328.338 449.219 C 334.563 449.073 339.23 448.738 342.338 448.214 Z M 2214.424 501 C 2214.404 423 2214.596 382.893 2215 380.678 C 2226.333 380.762 2234.667 381.094 2240 381.675 C 2245.333 382.257 2249.833 383.063 2253.5 384.093 C 2257.167 385.124 2260.333 386.296 2263 387.611 C 2265.667 388.926 2268.5 390.849 2271.5 393.382 C 2274.5 395.915 2277.026 398.652 2279.077 401.591 C 2281.128 404.53 2282.85 407.833 2284.242 411.5 C 2285.633 415.167 2286.656 418.833 2287.309 422.5 C 2287.962 426.167 2288.324 431.833 2288.394 439.5 C 2288.465 447.167 2288.308 452.667 2287.925 456 C 2287.541 459.333 2286.82 463 2285.761 467 C 2284.701 471 2283.209 474.833 2281.283 478.5 C 2279.356 482.167 2276.994 485.4 2274.197 488.199 C 2271.399 490.999 2268.5 493.209 2265.5 494.83 C 2262.5 496.45 2259.167 497.788 2255.5 498.843 C 2251.833 499.899 2246.833 500.703 2240.5 501.258 C 2234.167 501.812 2228.333 502.127 2223 502.202 C 2217.667 502.276 2214.808 501.876 2214.424 501 Z M 1882.542 503 C 1882.471 438.333 1882.623 405.764 1883 405.291 C 1906.333 405.481 1919.333 405.772 1922 406.162 C 1924.667 406.552 1927.667 407.221 1931 408.169 C 1934.333 409.118 1937.333 410.255 1940 411.58 C 1942.667 412.905 1945.083 414.473 1947.248 416.284 C 1949.413 418.095 1951.154 419.833 1952.471 421.5 C 1953.789 423.167 1955.076 425.333 1956.334 428 C 1957.592 430.667 1958.591 433.5 1959.332 436.5 C 1960.073 439.5 1960.59 443.833 1960.882 449.5 C 1961.175 455.167 1961.003 460.333 1960.368 465 C 1959.733 469.667 1958.709 473.833 1957.298 477.5 C 1955.887 481.167 1954.883 483.5 1954.287 484.5 C 1953.69 485.5 1952.632 486.833 1951.113 488.5 C 1949.594 490.167 1947.362 492.002 1944.417 494.005 C 1941.472 496.009 1938 497.744 1934 499.21 C 1930 500.677 1926 501.686 1922 502.238 C 1918 502.791 1910.5 503.132 1899.5 503.262 C 1888.5 503.393 1882.847 503.305 1882.542 503 Z" fill="#0A0245" fill-rule="evenodd" clip-rule="evenodd" shape-rendering="geometricPrecision" />
  </g>
</svg>