<svg width="140" height="140" viewBox="0 0 140 140" fill="none" xmlns="http://www.w3.org/2000/svg">
<path d="M69.8306 50.5304C80.4914 50.5304 89.1336 59.1726 89.1336 69.8334C89.1336 80.4942 80.4914 89.1363 69.8306 89.1364C59.1697 89.1364 50.5276 80.4943 50.5276 69.8334C50.5276 59.1725 59.1697 50.5304 69.8306 50.5304Z" fill="#080245"/>
<path fill-rule="evenodd" clip-rule="evenodd" d="M70 0C96.7777 0 110.167 -0.000319861 120.035 5.96496C125.766 9.42938 130.57 14.2336 134.034 19.9644C140 29.8324 140 43.2218 140 70C140 96.7778 140 110.167 134.034 120.035C130.57 125.766 125.766 130.57 120.035 134.034C110.167 140 96.7778 140 70 140C43.2219 140 29.8324 140 19.9644 134.034C14.2336 130.57 9.42938 125.766 5.96496 120.035C-0.000302091 110.167 0 96.7778 0 70C0 43.2218 -0.000436733 29.8324 5.96496 19.9644C9.42938 14.2336 14.2336 9.42937 19.9644 5.96496C29.8324 -0.000329429 43.222 0 70 0ZM70.2526 32.4143C52.7344 21.6839 35.898 19.0723 27.672 27.2983C19.4465 35.5241 22.0579 52.3593 32.7873 69.8768C22.0585 87.3932 19.4476 104.227 27.672 112.451C35.8966 120.676 52.7302 118.064 70.247 107.334C87.7627 118.061 104.596 120.671 112.821 112.446C121.046 104.221 118.435 87.3874 107.707 69.8712C118.433 52.357 121.043 35.5267 112.82 27.3032C104.597 19.0799 87.7664 21.6892 70.2526 32.4143Z" fill="#080245"/>
</svg>
